<svg xmlns="http://www.w3.org/2000/svg" xmlns:xlink="http://www.w3.org/1999/xlink" viewBox="0 0 1247.78 546.41"><defs><style>.cls-1{isolation:isolate;}.cls-2{fill:#c60651;}.cls-3,.cls-6{mix-blend-mode:multiply;}.cls-3{fill:url(#radial-gradient);}.cls-4{fill:url(#linear-gradient);}.cls-5{fill:url(#linear-gradient-2);}.cls-6{fill:url(#linear-gradient-3);}.cls-7{fill:#576975;}.cls-8{fill:#8898a3;}.cls-9{fill:#162731;}.cls-10{fill:#aab7c0;}.cls-11{fill:url(#linear-gradient-4);}.cls-12{fill:url(#linear-gradient-5);}.cls-13{fill:url(#linear-gradient-6);}.cls-14{fill:#435561;}.cls-15{fill:#c3cdd4;}.cls-16{fill:url(#radial-gradient-2);}.cls-17{fill:url(#radial-gradient-3);}.cls-18{fill:#fff;}.cls-19{fill:#5c6f7c;}</style><radialGradient id="radial-gradient" cx="210.33" cy="212.39" r="228.35" gradientUnits="userSpaceOnUse"><stop offset="0.5" stop-color="#fff"/><stop offset="0.71" stop-color="#fdfdfd"/><stop offset="0.8" stop-color="#f6f7f8"/><stop offset="0.86" stop-color="#e9edef"/><stop offset="0.92" stop-color="#d8dee2"/><stop offset="0.96" stop-color="#c1cad1"/><stop offset="1" stop-color="#aab7c0"/></radialGradient><linearGradient id="linear-gradient" x1="980.08" y1="-1674.41" x2="980.08" y2="-1345.58" gradientTransform="translate(561.65 1947.67) rotate(-45)" gradientUnits="userSpaceOnUse"><stop offset="0" stop-color="#e2959d"/><stop offset="1" stop-color="#c60651"/></linearGradient><linearGradient id="linear-gradient-2" x1="71.68" y1="107.56" x2="339.07" y2="374.95" gradientUnits="userSpaceOnUse"><stop offset="0" stop-color="#cd4162"/><stop offset="1" stop-color="#c60651"/></linearGradient><linearGradient id="linear-gradient-3" x1="71.68" y1="107.56" x2="339.07" y2="374.95" gradientUnits="userSpaceOnUse"><stop offset="0" stop-color="#fff"/><stop offset="1" stop-color="#9fadb7"/></linearGradient><linearGradient id="linear-gradient-4" x1="128.72" y1="128.8" x2="169.11" y2="169.19" gradientUnits="userSpaceOnUse"><stop offset="0" stop-color="#aab7c0"/><stop offset="1" stop-color="#162731"/></linearGradient><linearGradient id="linear-gradient-5" x1="70.08" y1="103.08" x2="334.6" y2="367.6" xlink:href="#linear-gradient-4"/><linearGradient id="linear-gradient-6" x1="386.53" y1="218.89" x2="50.81" y2="218.89" xlink:href="#linear-gradient-4"/><radialGradient id="radial-gradient-2" cx="448.69" cy="157.28" r="162.46" gradientTransform="translate(-787.9 -243.5) scale(2 2)" gradientUnits="userSpaceOnUse"><stop offset="0.35" stop-color="#fff"/><stop offset="0.56" stop-color="#fcfdfd"/><stop offset="0.69" stop-color="#f4f6f7"/><stop offset="0.79" stop-color="#e6eaec"/><stop offset="0.88" stop-color="#d2d8dd"/><stop offset="0.96" stop-color="#b8c2ca"/><stop offset="1" stop-color="#aab7c0"/></radialGradient><radialGradient id="radial-gradient-3" cx="463.1" cy="191.11" r="20.55" gradientTransform="translate(-787.9 -243.5) scale(2 2)" gradientUnits="userSpaceOnUse"><stop offset="0.35" stop-color="#fff"/><stop offset="0.54" stop-color="#fbfcfc"/><stop offset="0.73" stop-color="#eef1f3"/><stop offset="0.93" stop-color="#dae0e5"/><stop offset="1" stop-color="#d0d8de"/></radialGradient></defs><g class="cls-1"><g id="Layer_2" data-name="Layer 2"><g id="Layer_1-2" data-name="Layer 1"><path class="cls-2" d="M0,218.9C0,98,98,0,218.78,0c121,0,219,98,219,218.9s-98,218.88-219,218.88C98,437.78,0,339.79,0,218.9Z"/><path class="cls-3" d="M0,218.9C0,98,98,0,218.78,0c121,0,219,98,219,218.9s-98,218.88-219,218.88C98,437.78,0,339.79,0,218.9Z"/><path class="cls-4" d="M54.32,319.6C-9.89,255.39-2.53,143.93,70.64,70.74s184.74-80.68,249-16.46,56.83,175.68-16.46,249S118.52,383.82,54.32,319.6Z"/><path class="cls-5" d="M234.43,125.54c-.74-.78-4.58-5-4.58-5l-19.75,2.23L207.71,317s4.45,5.23,5.13,6.08a3.52,3.52,0,0,0,2.82,1.43h62a1.71,1.71,0,0,0,2-1.8V305a5.18,5.18,0,0,0-1.29-3.56c-.84-1-4.95-6.15-4.95-6.15l-37.75,4.13v-171A4.07,4.07,0,0,0,234.43,125.54ZM121.75,153.17a30.49,30.49,0,1,0,30.51-30.5A30.48,30.48,0,0,0,121.75,153.17Zm288.1,60.9c-1-1-5.6-5.9-5.6-5.9l-3.58,3.21H271.89l-3.05,18.5s3.8,3.85,4.73,4.85a5.39,5.39,0,0,0,3.75,1.72h108.9c-6.65,85-78.05,151.27-163.41,151.27a164,164,0,1,1,0-327.92s10.45.12,11.47.09,1.35-.54,1.35-1.39V40.33a2.89,2.89,0,0,0-1-2.24c-.7-.66-4.79-4.68-4.79-4.68l-7.1,1.15c-104.18,0-188.94,84.86-188.94,189.15a189,189,0,1,0,378.09,0v-4.58A6.39,6.39,0,0,0,409.85,214.07Z"/><path class="cls-6" d="M234.43,125.54c-.74-.78-4.58-5-4.58-5l-19.75,2.23L207.71,317s4.45,5.23,5.13,6.08a3.52,3.52,0,0,0,2.82,1.43h62a1.71,1.71,0,0,0,2-1.8V305a5.18,5.18,0,0,0-1.29-3.56c-.84-1-4.95-6.15-4.95-6.15l-37.75,4.13v-171A4.07,4.07,0,0,0,234.43,125.54ZM121.75,153.17a30.49,30.49,0,1,0,30.51-30.5A30.48,30.48,0,0,0,121.75,153.17Zm288.1,60.9c-1-1-5.6-5.9-5.6-5.9l-3.58,3.21H271.89l-3.05,18.5s3.8,3.85,4.73,4.85a5.39,5.39,0,0,0,3.75,1.72h108.9c-6.65,85-78.05,151.27-163.41,151.27a164,164,0,1,1,0-327.92s10.45.12,11.47.09,1.35-.54,1.35-1.39V40.33a2.89,2.89,0,0,0-1-2.24c-.7-.66-4.79-4.68-4.79-4.68l-7.1,1.15c-104.18,0-188.94,84.86-188.94,189.15a189,189,0,1,0,378.09,0v-4.58A6.39,6.39,0,0,0,409.85,214.07Z"/><polygon class="cls-7" points="212 312.75 207.72 317.03 273.37 317.03 269.09 312.75 212 312.75"/><path class="cls-8" d="M269.09,299.54l4.28-4.28H229.85l-4.27,4.28Z"/><polygon class="cls-8" points="212 124.81 225.57 124.81 229.85 120.53 207.72 120.53 212 124.81"/><path class="cls-9" d="M225.58,299.54l4.27-4.28V120.53h0l-4.27,4.28Z"/><polygon class="cls-9" points="269.09 312.75 273.37 317.03 273.38 317.03 273.38 295.26 273.37 295.26 269.09 299.55 269.09 312.75"/><polygon class="cls-10" points="212 124.81 207.72 120.53 207.71 120.53 207.71 317.03 207.72 317.03 212 312.75 212 124.81"/><path class="cls-11" d="M120.31,149a28.6,28.6,0,1,0,28.62-28.6A28.57,28.57,0,0,0,120.31,149Zm52.92,0a24.32,24.32,0,1,1-24.3-24.32A24.28,24.28,0,0,1,173.23,149Z"/><polygon class="cls-9" points="225.57 50.9 229.81 55.22 229.81 55.22 229.85 52.86 229.85 33.41 229.85 33.41 225.57 37.64 225.57 50.9"/><polygon class="cls-8" points="394.69 208.2 268.85 208.2 273.12 212.47 399.96 212.46 404.25 208.17 404.25 208.17 394.69 208.2"/><path class="cls-12" d="M400,218.84a181.19,181.19,0,1,1-362.37,0c0-100,81.23-181.29,181.08-181.29l6.91.09,4.27-4.23-11.18-.14c-102.21,0-185.36,83.25-185.36,185.57a185.47,185.47,0,1,0,370.94,0V208.17L400,212.46Z"/><path class="cls-13" d="M218.73,50.84a168,168,0,0,0,0,336.09c88.07,0,161.72-68.85,167.67-156.69l.13-3.64-4.13,0-.27,3.32c-5.81,85.69-77.58,152.76-163.4,152.76a163.76,163.76,0,1,1,0-327.52l11.08.1-4.23-4.32Z"/><path class="cls-14" d="M273.12,225.59l-4.28,4.29H382.12l4.41-4.29Z"/><polygon class="cls-15" points="273.12 212.47 268.85 208.2 268.84 208.2 268.84 229.88 268.85 229.88 273.12 225.59 273.12 212.47"/><path class="cls-16" d="M210.05,122.86V314.7h61V297.6H227.52V122.86Zm17.47-87.14c-2.3-.08-6.65-.12-8.85-.12-100.84,0-183,82.2-183,183.24a183.13,183.13,0,1,0,366.26,0v-8.33l-7.2,0H271.17v17H384.54c0,.4-.05,2.18-.08,2.54C378.61,316.4,306.59,385,218.73,385a166.1,166.1,0,1,1,0-332.19c2,0,6.69,0,8.79.07Z"/><path class="cls-17" d="M148.93,175.18A26.21,26.21,0,1,0,122.64,149,26.22,26.22,0,0,0,148.93,175.18Z"/><path class="cls-18" d="M153.66,127.5a26.05,26.05,0,0,1,16,5.57,26.15,26.15,0,1,0-36.78,36.51,25.85,25.85,0,0,1-5.49-15.81A26.27,26.27,0,0,1,153.66,127.5Z"/><path class="cls-18" d="M227.52,35.72c-2.3-.08-6.65-.12-8.85-.12-100.84,0-183,82.2-183,183.24A182.12,182.12,0,0,0,89.25,348.39c1.11,1.1,2.26,2.16,3.39,3.24A182,182,0,0,1,42.05,225.26C42.05,124.5,113.44,40.73,227.52,35.72Z"/><path class="cls-18" d="M227.53,297.6s12.55,3.65,43.51,3.65V297.6Z"/><path class="cls-18" d="M227.52,128.27v-5.41H210.05V314.7s5.41-29.22,5.41-186.43Z"/><path class="cls-18" d="M401.9,210.51l-130.73,0v17h4.73V215.25C389.84,215.25,401.9,210.51,401.9,210.51Z"/><path class="cls-18" d="M384.54,227.54c0,.4-.05,2.18-.08,2.54C378.61,316.4,306.59,385,218.73,385A166.19,166.19,0,0,1,58.83,263.62,168.24,168.24,0,0,0,221.64,387c83.43,0,160.27-65.35,165.05-159.43Z"/><path class="cls-19" d="M547.2,88.69h77.27V284.81H739.16V350.3h-192Z"/><path class="cls-19" d="M939.1,324.21c-13.63,20.84-38.85,32.55-70.44,32.55-68,0-112.21-54.09-112.21-137.62,0-84.76,49.86-137,132.18-137,32.86,0,61,8.77,82.63,25.43,21.9,17.3,30.07,34.29,33.57,68.81H924.05c-2.23-20.14-17.25-33.11-37.18-33.11-31.13,0-49.46,28.91-49.46,76.9,0,48.68,19,77.93,50.85,77.93,25.17,0,39.66-14,45.62-45.21H884.07v-55h120.76V350.3H939.1Z"/><path class="cls-19" d="M547.12,536.81V446.12a7.45,7.45,0,0,1,7.72-7.72c4.41,0,7.4,3.15,7.4,7.72v84.23h50.23a7,7,0,0,1,7.09,6.93,7.2,7.2,0,0,1-7.09,7.25H554.84A7.55,7.55,0,0,1,547.12,536.81Z"/><path class="cls-19" d="M635.62,446.9a8.67,8.67,0,1,1-8.67,8.66A8.74,8.74,0,0,1,635.62,446.9Zm0,98.88a7.19,7.19,0,0,1-7.4-7.39V482.34a7.4,7.4,0,1,1,14.8,0v56.05A7.19,7.19,0,0,1,635.62,545.78Z"/><path class="cls-19" d="M700.65,451.31h-4.41c-8,0-12.6,3-12.6,13.39v11.5h15.59a6.14,6.14,0,0,1,0,12.28H683.64v49.91a7.4,7.4,0,0,1-14.8,0V488.48h-9.29a6.14,6.14,0,1,1,0-12.28h9.29V465.8c0-16.53,8-26.77,26.3-26.77h5.51a6.14,6.14,0,0,1,0,12.28Z"/><path class="cls-19" d="M775.28,510.52c0,2.52-1.41,5-5.66,5H722.54c.78,10.86,8.19,19.05,21.26,19.05,8.18,0,13.06-2.84,18.26-7.72a7.22,7.22,0,0,1,4.88-2.36,6,6,0,0,1,6.14,6.14,6.56,6.56,0,0,1-1.89,4.25c-6,6.93-16.69,11.49-28,11.49-23.46,0-35.9-16.37-35.9-36,0-20.64,15-36.07,35.27-36.07C762.37,474.3,775.28,490.36,775.28,510.52Zm-32.75-24.41c-10.86,0-18.26,7.72-19.68,17.49h38.74C760.33,494.15,753.24,486.11,742.53,486.11Z"/><path class="cls-19" d="M795.76,477.92c-1.26,2.36-2.84,4.73-6.46,4.73-4.25,0-6.46-2.68-6.46-5.2a11.13,11.13,0,0,1,1.42-4.57,49.09,49.09,0,0,0,4.09-19.36v-8.35c0-3.94,2.37-6.93,6.46-6.93s6.46,3,6.46,6.93v6.3C801.27,459.66,800.17,469.26,795.76,477.92Z"/><path class="cls-19" d="M835.44,546.41c-9.92,0-18.74-3.14-25-8a7.89,7.89,0,0,1-3.15-6.15c0-3.14,2.52-5.19,5.67-5.19a9.11,9.11,0,0,1,5.82,2.2,29.7,29.7,0,0,0,17.8,6.14c8.5,0,13.07-3.15,13.07-8,0-5.35-4.41-7.4-15.43-10.39-19.37-5.19-26.46-11.8-26.46-23.14,0-11.81,10.87-19.53,27.88-19.53a46.48,46.48,0,0,1,19.52,4.42c4.25,2,7.24,4.56,7.24,7.71,0,2.83-1.57,5.51-5.67,5.51-2,0-4.09-.94-6.46-2.21a30.87,30.87,0,0,0-15-3.62c-7.88,0-13.23,2.05-13.23,7.56,0,5.35,4.72,7.09,16.06,10.39,17,4.89,25.83,9.45,25.83,22.2C863.94,537.91,854.17,546.41,835.44,546.41Z"/><path class="cls-19" d="M1002.93,529.73c-9.29,10.23-24.41,16.68-42.2,16.68-32,0-53.38-23.3-53.38-54.31,0-31.81,22.51-54.33,53.06-54.33,13.7,0,26.62,3.94,35.59,13.38a7,7,0,0,1,2.36,5,6.7,6.7,0,0,1-6.93,6.93,8.35,8.35,0,0,1-5-1.89c-8.35-6.29-15.75-9.44-26-9.44-22.83,0-37.79,17.95-37.79,40.31s13.23,41.25,38.11,41.25c11.81,0,22.36-3.47,29.13-9.45V504.54h-25a6.89,6.89,0,0,1-6.93-6.93,6.75,6.75,0,0,1,6.93-6.77H997.1c4.25,0,7.56,2.83,7.56,7.71v26.14C1004.66,526.89,1004.35,528.31,1002.93,529.73Z"/><path class="cls-19" d="M1051.58,546.41c-21.88,0-36-16.21-36-36s14.17-36.07,36-36.07,36.06,16.22,36.06,36.07S1073.47,546.41,1051.58,546.41Zm0-59.51c-13.85,0-21.25,10.71-21.25,23.47s7.4,23.45,21.25,23.45,21.26-10.71,21.26-23.45S1065.44,486.9,1051.58,486.9Z"/><path class="cls-19" d="M1131.73,546.41c-21.89,0-36.06-16.21-36.06-36s14.17-36.07,36.06-36.07,36.06,16.22,36.06,36.07S1153.62,546.41,1131.73,546.41Zm0-59.51c-13.86,0-21.26,10.71-21.26,23.47s7.4,23.45,21.26,23.45S1153,523.11,1153,510.37,1145.59,486.9,1131.73,486.9Z"/><path class="cls-19" d="M1208.73,474.3A28.34,28.34,0,0,1,1233,487.84v-42a7.4,7.4,0,1,1,14.8,0v92.59c0,4.09-2.52,7.39-7.09,7.39s-7.24-3.46-7.24-7.55v-5.36c-4.73,8.19-14.17,13.54-24.72,13.54-18.11,0-32.91-15.11-32.91-36C1175.82,488.63,1190.62,474.3,1208.73,474.3Zm3,59.84c12.75,0,21.26-11.18,21.26-23.77s-8.51-23.78-21.26-23.78-21.1,9.6-21.1,23.78S1199,534.14,1211.72,534.14Z"/></g></g></g></svg>