<svg xmlns="http://www.w3.org/2000/svg" viewBox="0 0 859.66 320.99"><defs><style>.cls-1{fill:#040404;}.cls-2{fill:#050505;}.cls-3{fill:#060606;}.cls-4{fill:#080808;}.cls-5{fill:#070707;}.cls-6{fill:#0d0d0d;}</style></defs><g id="Layer_2" data-name="Layer 2"><g id="Layer_1-2" data-name="Layer 1"><path class="cls-1" d="M484.51,144.09c11.75-26.66,23.17-52.56,34.56-78.49.66-1.52,1.38-2.45,3.24-2.42,23.13.32,46.28-.77,69.39.58,11.5.67,15.62,6.73,11.53,17.56-5.5,14.56-12,28.73-18.11,43.06-1.62,3.81-3.06,7.71-5,11.35-2.85,5.36-7.25,8.4-13.63,8.39C539.36,144.05,512.23,144.09,484.51,144.09Zm52.89-16.58v-.18c7.82,0,15.63,0,23.45,0,3.2,0,5.17-1.4,6.42-4.4,5.23-12.54,10.64-25,15.89-37.54,2.07-4.94,1.17-6.29-4.23-6.31-14.48-.07-28.95,0-43.43,0-1.74,0-3.07.07-3.93,2.08-6.18,14.45-12.49,28.86-18.78,43.27-1,2.27-.58,3.21,2.15,3.16C522.42,127.42,529.91,127.51,537.4,127.51Z"/><path class="cls-2" d="M569.38,216.91c.93-2.19,1.6-3.87,2.35-5.51,2.76-6,2.5-6.5-3.86-6.51-13.49,0-27,.16-40.47-.09-4.84-.1-7.85,1.57-9.69,6-4.84,11.63-9.87,23.19-14.69,34.83-2,4.89-1,6.18,4.27,6.19,12.66,0,25.32-.18,38,.09,5.73.11,9.79-1.62,11.35-7.37,1.28-4.74,4.33-5.88,8.86-5.32,4.24.52,8.55.5,13.51.75-3.58,7.84-6.89,15.19-10.28,22.51-1.71,3.7-5,5.1-8.81,5.57-8.3,1-16.63.48-24.94.44-15.31-.05-30.63.57-45.93-.4-8.25-.52-10.75-3.76-8.54-11.7,3.21-11.55,8.89-22.15,13.22-33.27,3.13-8,6.74-15.86,10-23.83,3.39-8.21,9.25-11.73,18.29-11.56,21.64.42,43.29.22,64.94.3,10.38,0,13.18,4.49,8.53,13.89-2.48,5-3.42,12.34-7.86,14.47C582.77,218.72,575.91,216.91,569.38,216.91Z"/><path class="cls-3" d="M859.66,63.2C854.94,74,850.47,84.31,846,94.59c-5.08,11.54-10.65,22.88-15.16,34.63-3.9,10.18-11.21,14.46-21.37,14.7-11.65.28-23.32.35-35,.05-9.89-.25-14.14-6.15-10.56-15.39,4.47-11.57,9.65-22.89,15.06-34.07,3.53-7.28,10.58-9.19,18.08-9.28,10.83-.13,21.66-.15,32.48,0,3,0,4.48-.85,5.56-3.6,2.06-5.24,4.49-10.33,6.75-15.49.75-1.71,1.43-3.17,3.87-3C850.13,63.36,854.58,63.2,859.66,63.2Zm-62.22,65c4,0,8-.18,11.94,0a6.45,6.45,0,0,0,7-4.3c2.9-6.67,5.8-13.34,8.81-20,1.14-2.51.79-3.46-2.2-3.41-8.46.14-16.93,0-25.39,0-2.4,0-4.82.32-6,2.79-3.21,7.06-6.3,14.18-9.39,21.3-1.18,2.7.08,3.57,2.72,3.51C789.14,128.11,793.29,128.18,797.44,128.18Z"/><path class="cls-4" d="M607.68,98.07a3.83,3.83,0,0,1-.12-.85c3.12-12,3.12-12,15.38-12q15.25,0,30.49,0a40.08,40.08,0,0,1,5.48.28c9.67,1.35,12.7,6.22,9,15.33-5,12.13-10.32,24.11-15.6,36.11a9.83,9.83,0,0,1-8.41,6.16c-15.62,1.69-31.28.77-46.91.64-6.26-.06-8.62-3.92-6.46-9.88,2.42-6.68,5.42-13.16,8.44-19.61,2.26-4.86,6.72-6.06,11.67-6H644.1c3.61,0,7.7-4.77,6.9-8.18-.59-2.5-2.78-1.91-4.51-1.91q-17,0-34,0Zm35.23,21.53H618.24c-7.15,0-7.85.65-10.13,7.51-1,3-.46,4.4,2.84,4.39,8.12,0,16.24,0,24.36,0,1.85,0,3.6-.26,4.31-2.51C640.6,125.84,641.78,122.78,642.91,119.6Z"/><path class="cls-5" d="M651.69,210.8c7.81,0,15.66-.44,23.43.12,8.8.65,11.94,5.43,8.71,13.66-5.07,12.94-10.83,25.63-16.43,38.36-1.45,3.28-4.37,4.77-7.92,5.28-10.27,1.48-20.6.54-30.89.76-5.33.11-10.67.17-16-.16-6.05-.39-8.34-3.72-6.57-9.46,2.14-7,5.35-13.55,8.57-20.09,1.86-3.78,5.16-5.46,9.27-5.76,11.64-.83,23.3-.43,34.93-.23,4.16.07,5.9-1.41,7.11-5s.9-5.24-3.45-5.17c-11.32.19-22.64-.09-34,.14-4.22.09-6-.24-4.17-5.2,2.77-7.49,2.44-7.61,10.37-7.61h17Zm6.4,34.06h-24.7c-6.8,0-7.83.81-9.81,7.31-1,3.15-.2,4.77,3.4,4.68,5.15-.12,10.32,0,15.48,0,14.62-.12,10.7,1.56,15.71-11.21C658.23,245.47,658.14,245.28,658.09,244.86Z"/><path class="cls-2" d="M756.75,230.73c4.15,1.16,6.82-.17,9.51-2.59,6-5.46,12.35-10.63,18.58-15.88,1.24-1,2.3-2.31,4.25-2.29,6.42.1,12.84,0,20.42,0-10.16,8.48-19.34,16.31-28.74,23.85-2.6,2.09-3.23,4-2.27,7.12,2.76,9,5.19,18.14,7.94,27.88-5,0-9.52-.08-14.08,0-2.4.05-2.5-1.62-2.93-3.23-1.46-5.44-3.13-10.84-4.41-16.33-.64-2.76-1.87-3.55-4.71-3.54-10.47,0-10.47-.1-14.66,9.39-.33.76-.65,1.53-1,2.29-5,11.52-5,11.39-17.33,11.47-3.78,0-4.54-.59-2.88-4.31,9.61-21.48,19-43.07,28.46-64.62.06-.15.17-.29.24-.44,5.33-11.83,5.33-11.69,18.13-11.64,3.69,0,3.7,1,2.43,3.89-5.21,11.64-10.28,23.35-15.39,35C757.8,228.05,757.34,229.27,756.75,230.73Z"/><path class="cls-2" d="M755,85.19C743.88,97,733.55,108,723.18,118.92c-6.06,6.39-12.27,12.64-18.25,19.11-7.28,7.89-16.64,6.4-25.63,5.54-4-.38-4.39-4.53-4.6-7.92-.79-12.78-1.51-25.56-2.25-38.34a28,28,0,0,1-.16-4.48c.25-2.5-2.12-6.51.53-7.19,4.35-1.12,9.21-.41,13.84-.1,1.28.09.78,2,.85,3.08.71,11.45,1.36,22.9,2,34.35.13,2.12-.33,4.85,2,5.72s3.66-1.65,5.09-3.17c11.87-12.58,23.76-25.13,35.53-37.8a7.2,7.2,0,0,1,6-2.58C743.35,85.32,748.51,85.19,755,85.19Z"/><path class="cls-2" d="M575.92,268.86c4.11-9.47,7.94-18.42,11.86-27.32,7.16-16.24,14.56-32.37,21.45-48.72,1.66-3.94,3.7-5.32,7.7-4.85a30.83,30.83,0,0,0,7,0c4.37-.51,4.05,1.22,2.65,4.37q-16.26,36.6-32.27,73.32c-1,2.24-2.08,3.42-4.75,3.27C585.27,268.68,581,268.86,575.92,268.86Z"/><path class="cls-1" d="M742.69,210c-2.07,4.64-4.08,8.78-5.76,13.05-.8,2-2.12,2.17-3.88,2.15-5.48-.05-11,.13-16.46-.06-4.17-.14-6.69,1.36-8.39,5.37-5,11.74-10.4,23.29-15.47,35-1.07,2.48-2.3,3.6-5.12,3.42-4.14-.27-8.31-.07-12.63-.07-.5-2.38,1.11-4.05,1.9-5.87,4.86-11.24,9.88-22.4,14.77-33.61C697.5,216,707.78,209.74,722.27,210,728.89,210.1,735.5,210,742.69,210Z"/><path class="cls-2" d="M731.88,143.58c4.66-10.69,9.25-21.26,13.88-31.81,3.39-7.72,6.93-15.38,10.2-23.15,1-2.44,2.14-3.79,5-3.49a50.59,50.59,0,0,0,9,0c3.43-.27,3.94.61,2.51,3.77-6.19,13.74-12.15,27.57-18.2,41.36-.27.6-.6,1.18-.85,1.79C747.75,145.53,747.75,145.53,731.88,143.58Z"/><path class="cls-6" d="M783.75,63.18c-1.74,4.14-3.26,7.75-4.79,11.35-.54,1.26-1.56,1.46-2.83,1.45-4.62-.06-9.24,0-14.08,0,.83-4.11,2.93-7.33,4.28-10.83a2.77,2.77,0,0,1,3-2C773.94,63.22,778.54,63.18,783.75,63.18Z"/><g id="layer1"><g id="g2470"><path id="path9" d="M366.19,90.8a15.74,15.74,0,1,0,15.68,15.8A15.77,15.77,0,0,0,366.19,90.8Zm0,2.61A13.13,13.13,0,1,1,353,106.6,13.15,13.15,0,0,1,366.19,93.41Z"/><path id="path13" d="M359.4,98.24v17h2.74V108h1.57l1.31.13.91.39,1.31,1.44,1.56,2.48,1.44,2.75h3.4L371.55,112l-2.48-3.4-1.44-.91,2-.52,1.57-1,.91-1.44.39-1.82-.26-1.18-.52-1.31-.92-.91-1.17-.65-4.31-.53Zm2.74,2.35h3.14l2.74.27,1.18.91.39,1.31-.26,1-.66.92-1.17.52-2.09.13h-3.27Z"/><path id="path17" d="M348.55,0,275.92,97.72l-9.28-8.62L246,71.59,222.75,59.7l-20-5.61L182,51.87l-32.27,4.05-16.73,6-14.24,8.37L107.13,80.87,98.77,93.41l-5,12.8-2.35,14.24,1.31,15.42,2.61,7.58,5.75,11.88,7.57,9.93,4,4.18H16.59V158.86L0,171.4l16.59,12.41V173.36H117.71l4.05,2.62,11.1,5.48,13.59,3.92,40.24,3.53H208l-50.82,68.33a39.9,39.9,0,0,0,32,63.75H289.5a32.34,32.34,0,0,0,26-13.07L348,264.29H304.14l-8.5,11.37a25.13,25.13,0,0,1-20.11,10.19H209a14.73,14.73,0,0,1-13.2-8.1,15,15,0,0,1,1.44-15.55L242.08,202a32.33,32.33,0,0,1,26-13.06h64.27A7.46,7.46,0,0,1,339,193a7.36,7.36,0,0,1-.66,7.71l-12.28,16.59h43.77l17.37-23.39a24.91,24.91,0,0,0,4.32-20.51h93.54v10.45l16.59-12.41-16.59-12.54v10.58H390.36a25.15,25.15,0,0,0-23.25-15.67H277.88L392.45,0Zm-174,85.18h20L212,88.71,215.3,90l13.19,9.15,6.14,7.18,3.79,8.1L240,122.8l-1,8.1-2.88,9.41-6.4,11.63-4.44,1.83h-61.8L147,152.72l-7.18-3.66-8.1-10.45-3.14-9.4-.26-9,2.74-8.62,5.62-8,13.46-10.84,16.2-5.88Z"/></g></g></g></g></svg>