<?xml version="1.0" encoding="UTF-8" standalone="no"?>
<svg
   xmlns:svg="http://www.w3.org/2000/svg"
   xmlns="http://www.w3.org/2000/svg"
   xmlns:xlink="http://www.w3.org/1999/xlink"
   height="40"
   width="152"
   id="svg2"
   version="1.1">
  <defs
     id="defs48">
    <linearGradient
       spreadMethod="pad"
       gradientTransform="matrix(16.796089,-20.016745,-19.79294,-16.860132,5.29739,27.6665)"
       gradientUnits="userSpaceOnUse"
       y2="0"
       x2="1"
       y1="0"
       x1="0"
       id="linearGradient10">
      <stop
         offset="0"
         style="stop-color:#94a9bb"
         id="stop4" />
      <stop
         offset="0.122699"
         style="stop-color:#94a9bb"
         id="stop6" />
      <stop
         offset="1"
         style="stop-opacity:0.52941179;stop-color:#94a9bb"
         id="stop8" />
    </linearGradient>
    <linearGradient
       spreadMethod="pad"
       gradientTransform="matrix(31.947388,3.3577752,3.3577752,-31.947388,8.88144,15.065)"
       gradientUnits="userSpaceOnUse"
       y2="0"
       x2="1"
       y1="0"
       x1="0"
       id="linearGradient18">
      <stop
         offset="0"
         style="stop-color:#d11c23"
         id="stop12" />
      <stop
         offset="0.5517738"
         style="stop-color:#d11c23"
         id="stop14" />
      <stop
         offset="1"
         style="stop-color:#a91317"
         id="stop16" />
    </linearGradient>
    <linearGradient
       spreadMethod="pad"
       gradientTransform="matrix(5.1075349,-6.0868983,-6.0188532,-5.126977,16.75681,31.0169)"
       gradientUnits="userSpaceOnUse"
       y2="0"
       x2="1"
       y1="0"
       x1="0"
       id="linearGradient26">
      <stop
         offset="0"
         style="stop-color:#94a9bb"
         id="stop20" />
      <stop
         offset="0.122699"
         style="stop-color:#94a9bb"
         id="stop22" />
      <stop
         offset="1"
         style="stop-opacity:0.52941179;stop-color:#94a9bb"
         id="stop24" />
    </linearGradient>
    <linearGradient
       spreadMethod="pad"
       gradientTransform="matrix(-3.9556396,-11.487967,-11.487967,3.9556396,13.52005,25.9458)"
       gradientUnits="userSpaceOnUse"
       y2="0"
       x2="1"
       y1="0"
       x1="0"
       id="linearGradient32">
      <stop
         offset="0"
         style="stop-color:#94a9bb"
         id="stop28" />
      <stop
         offset="1"
         style="stop-opacity:0.57254905;stop-color:#94a9bb"
         id="stop30" />
    </linearGradient>
    <linearGradient
       spreadMethod="pad"
       gradientTransform="matrix(5.2982559,-6.3142262,-6.2436728,-5.318481,11.67429,10.5593)"
       gradientUnits="userSpaceOnUse"
       y2="0"
       x2="1"
       y1="0"
       x1="0"
       id="linearGradient40">
      <stop
         offset="0"
         style="stop-color:#94a9bb"
         id="stop34" />
      <stop
         offset="0.122699"
         style="stop-color:#94a9bb"
         id="stop36" />
      <stop
         offset="1"
         style="stop-opacity:0.52941179;stop-color:#94a9bb"
         id="stop38" />
    </linearGradient>
    <linearGradient
       spreadMethod="pad"
       gradientTransform="matrix(-9.6850462,-28.127397,-28.127397,9.6850462,27.12903,39.0193)"
       gradientUnits="userSpaceOnUse"
       y2="0"
       x2="1"
       y1="0"
       x1="0"
       id="linearGradient46">
      <stop
         offset="0"
         style="stop-color:#94a9bb"
         id="stop42" />
      <stop
         offset="1"
         style="stop-opacity:0.57254905;stop-color:#94a9bb"
         id="stop44" />
    </linearGradient>
  </defs>
  <path
     style="opacity:0.6;fill:url(#linearGradient10)"
     d="M 13.549,4.697 C 7.481,4.72 2.058,8.831 0.742,14.87 0.547,15.768 0.452,16.664 0.449,17.548 v 0.067 c 0.014,5.995 4.293,11.421 10.534,12.781 7.184,1.565 14.246,-2.847 15.774,-9.856 0.194,-0.892 0.289,-1.782 0.293,-2.659 V 17.758 C 27.019,11.774 22.743,6.37 16.515,5.012 15.551,4.802 14.59,4.699 13.642,4.697 Z M 12.464,28.93 C 7.155,27.774 3.84,22.302 5.059,16.71 c 1.219,-5.595 6.51,-9.19 11.818,-8.033 5.306,1.157 8.622,6.629 7.403,12.221 -1.065,4.886 -5.24,8.249 -9.816,8.249 -0.662,0 -1.33,-0.071 -2,-0.217"
     id="path50" />
  <path
     d="M 24.855469,0.58984375 A 16.0595,16.155 0 0 0 8.796875,16.744141 16.0595,16.155 0 0 0 24.855469,32.898438 16.0595,16.155 0 0 0 40.914062,16.744141 16.0595,16.155 0 0 0 24.855469,0.58984375 Z M 26.152344,3.4042969 A 12.722,11.6445 0 0 1 38.873047,15.048828 12.722,11.6445 0 0 1 26.152344,26.693359 12.722,11.6445 0 0 1 13.429688,15.048828 12.722,11.6445 0 0 1 26.152344,3.4042969"
     style="fill:url(#linearGradient18)"
     id="path52" />
  <path
     style="opacity:0.6;fill:url(#linearGradient26)"
     d="m 21.653,25.939 c -1.842,1.983 -4.39,3.18 -7.091,3.209 c 0.582,0.482 1.19,0.929 1.834,1.325 c 2.815,-0.525 5.372,-1.943 7.27,-4.008 c -0.695,-0.12 -1.368,-0.3 -2.013,-0.527"
     id="path54" />
  <path
     style="opacity:0.98;fill:url(#linearGradient32)"
     d="m 13.617,13.063 c -2.115,1.668 -3.686,3.898 -4.592,6.39 c 0.433,2.575 1.47,4.94 2.958,6.948 c 0.013,0.019 0.027,0.037 0.041,0.054 c -0.77,-3.041 -0.074,-6.228 1.732,-8.794 c -0.027,-0.107 -0.055,-0.217 -0.079,-0.322 C 13.516,16.596 13.43,15.831 13.43,15.044 c 0,-0.677 0.064,-1.337 0.188,-1.981 v -0.01"
     id="path56" />
  <path
     style="opacity:0.6;fill:url(#linearGradient40)"
     d="M 14.146,4.71 C 12.64,6.065 11.387,7.705 10.48,9.542 c 1.571,-0.814 3.35,-1.202 5.166,-1.05 c 0.81,-1.093 1.824,-2.05 2.984,-2.834 C 17.959,5.392 17.249,5.175 16.517,5.013 C 15.738,4.846 14.959,4.744 14.189,4.71"
     id="path58" />
  <path
     style="opacity:0.98;fill:url(#linearGradient46)"
     d="m 22.436,9.989 c -1.773,0 -3.569,0.332 -5.307,1.032 -1.294,0.52 -2.47,1.211 -3.511,2.041 v 0.01 c -0.124,0.644 -0.188,1.308 -0.188,1.981 0,0.788 0.086,1.553 0.247,2.294 0.024,0.106 0.052,0.217 0.079,0.323 1.285,-1.834 3.142,-3.349 5.428,-4.271 5.952,-2.396 12.583,0.148 14.816,5.69 0.604,1.492 0.826,3.054 0.71,4.579 -0.253,3.299 -2.068,6.446 -4.994,8.474 -0.746,0.52 -1.567,0.968 -2.446,1.321 C 21.316,35.86 14.682,33.312 12.452,27.774 12.277,27.341 12.134,26.903 12.024,26.465 12.01,26.447 11.996,26.429 11.983,26.41 10.495,24.406 9.458,22.037 9.025,19.461 7.804,22.812 7.776,26.64 9.227,30.248 c 2.332,5.793 7.816,9.346 13.577,9.403 h 0.268 c 1.73,-0.016 3.48,-0.348 5.174,-1.031 4.932,-1.986 8.147,-6.437 8.861,-11.431 0.271,-1.884 0.184,-3.848 -0.301,-5.782 C 36.636,20.734 36.42,20.061 36.153,19.398 33.799,13.559 28.247,9.994 22.436,9.994"
     id="path60" />
  <path
     d="m 95.1201,16.5774 -4.648,11.882 -4.65,-11.882 h -2.642 l 5.557,13.228 0.216,0.503 0.308,0.748 c -0.28,0.945 -0.741,1.48 -0.784,1.526 -0.035,0.032 -0.059,0.055 -0.083,0.099 0,0 -0.007,0.01 -0.007,0.011 -0.403,0.51 -0.845,0.837 -1.272,0.964 -0.288,0.088 -0.588,0.101 -0.912,0.018 -0.377,-0.098 -0.787,-0.318 -1.218,-0.655 l -1.339,1.731 c 1.093,0.861 2.102,1.147 2.92,1.169 0.45,0.013 0.858,-0.065 1.184,-0.165 0.935,-0.284 1.775,-0.925 2.489,-1.887 0.042,-0.042 0.074,-0.085 0.106,-0.136 0.076,-0.102 0.156,-0.215 0.229,-0.337 0.059,-0.088 0.116,-0.177 0.171,-0.284 0.071,-0.139 0.151,-0.266 0.209,-0.41 0.03,-0.041 0.052,-0.086 0.077,-0.142 0.018,-0.055 0.056,-0.127 0.087,-0.19 l 0.098,-0.269 0.419,-0.964 6.126,-14.558"
     id="path62" />
  <path
     d="m 50.5039,13.4436 h 5.416 c 1.669,0 3.484,1.582 3.484,3.633 0,2.077 -1.815,3.63 -3.484,3.6 L 50,20.7066 v 2.224 h 5.9199 c 3.25,0 6.12,-2.372 6.12,-5.854 0,-3.545 -2.928,-5.887 -6.12,-5.887 h -7.963 v 19.53 h 2.547"
     id="path64" />
  <path
     d="m 69.7534,18.1287 c -2.899,0 -4.743,2.46 -4.743,5.504 0,3.046 1.844,5.534 4.743,5.534 2.927,0 4.743,-2.459 4.743,-5.534 0,-3.044 -1.816,-5.504 -4.743,-5.504 m 0,12.971 c -4.158,0 -7.173,-3.337 -7.173,-7.467 0,-4.097 3.015,-7.464 7.173,-7.464 4.186,0 7.172,3.367 7.172,7.464 0,4.13 -2.986,7.467 -7.172,7.467"
     id="path66" />
  <path
     d="m 79.2275,30.7195 -0.029,-19.53 h 2.342 l 0.03,19.53"
     id="path68" />
  <path
     d="m 104.7084,31.2 c -4.157,0 -7.173,-3.338 -7.173,-7.467 0,-4.098 3.016,-7.465 7.173,-7.465 1.758,0 3.484,0.293 5.562,2.43 l -1.551,1.521 c -1.317,-1.463 -2.488,-1.99 -4.011,-1.99 -2.898,0 -4.743,2.459 -4.743,5.504 0,3.046 1.845,5.535 4.743,5.535 1.523,0 2.694,-0.557 4.011,-2.05 l 1.551,1.551 c -2.078,2.11 -3.804,2.431 -5.562,2.431"
     id="path70" />
  <use
     transform="translate(48.643)"
     xlink:href="#path66"
     id="use72" />
  <path
     d="m 144.6874,30.7195 v -9.223 c 0,-2.285 -0.935,-3.368 -2.693,-3.368 -1.493,0 -2.634,1.172 -3.395,2.108 v 10.483 h -2.344 v -9.223 c 0,-2.285 -0.965,-3.368 -2.693,-3.368 -1.522,0 -2.635,1.172 -3.425,2.108 v 10.483 h -2.344 v -14.142 h 2.344 v 1.757 c 0.643,-0.791 1.815,-2.167 4.099,-2.167 2.049,0 3.366,0.936 3.953,2.664 0.848,-1.2 2.195,-2.664 4.508,-2.664 2.869,0 4.334,1.93 4.334,5.329 v 9.223"
     id="path74" />
  <path
     d="m 149.48,17.16 v 1.77 h -0.27 v -2.01 h 0.82 c 0.34,0 0.64,0.24 0.64,0.61 0,0.45 -0.39,0.59 -0.51,0.59 l 0.54,0.81 h -0.34 l -0.52,-0.8 h -0.44 v -0.24 h 0.63 c 0.17,0 0.36,-0.15 0.36,-0.36 0,-0.22 -0.19,-0.37 -0.36,-0.37 z m -1.1,0.76 c 0,0.82 0.67,1.5 1.5,1.5 0.83,0 1.49,-0.68 1.49,-1.5 0,-0.84 -0.66,-1.5 -1.49,-1.5 -0.83,0 -1.5,0.66 -1.5,1.5 z m -0.25,0 c 0,-0.98 0.78,-1.75 1.75,-1.75 0.97,0 1.75,0.77 1.75,1.75 0,0.96 -0.78,1.75 -1.75,1.75 -0.97,0 -1.75,-0.79 -1.75,-1.75"
     id="path76" />
</svg>
