<svg xmlns="http://www.w3.org/2000/svg" viewBox="0 0 2500 668.67"><defs><style>.cls-1{fill:red;}.cls-2{fill:#999;}.cls-3{fill:#666;}</style></defs><g id="Layer_2" data-name="Layer 2"><g id="Layer_1-2" data-name="Layer 1"><path class="cls-1" d="M1865.65,184.13,1895.9,80h.46l30.16,104.1ZM1961.79,307h88.61L1959,5.48H1833.18L1741.8,307h88.58l16.17-55.74h99.13L1961.79,307ZM384.93,156.2c0-16.53.43-26.33.75-33.59,2.31-46.54,20.7-52,56.41-52s54.13,5.45,56.47,52c.31,7.27.74,17.08.74,33.59s-.43,26.39-.74,33.76c-2.35,46.42-20.73,51.91-56.47,51.91S388,236.39,385.68,190c-.32-7.37-.75-17.13-.75-33.76m57.16,156.24c91,0,134.9-16,141.1-98.1,1.51-19.53,1.8-39.58,1.83-58.14s-.32-38.48-1.83-58.1C577,16.06,533.1,0,442.09,0S307.24,16.06,301,98.1c-1.5,19.62-1.78,39.62-1.78,58.1s.28,38.61,1.78,58.14c6.2,82.13,50.11,98.1,141,98.1M0,5.49V80.67H90.12V307h90.23V80.67h90.13V5.49Zm1298,0h85.59V307H1298ZM1039.35,115.57V5.49H954.19V307h85.16V190.8h98.86V307h85V5.49h-85V115.57Zm505.2-41.12h59c15.5,0,25,7.32,25,24.83,0,15.11-9.39,24.34-25,24.34h-59Zm0,108.75h59c23.91,0,28.86,10.45,28.86,27.43S1623.08,238,1603.51,238h-59Zm120.55-33.76c37.91-9.67,49-32.41,49-65.13,0-66.23-41.69-78.83-101-78.83H1459.55V307h161.24c74.2,0,99.17-32,99.17-81.19,0-34.27-7.82-64.55-54.86-76.4M634.6,208.07h81.1c.08,14.71,2,24.47,9.06,29.74C732.83,243.93,740,246,764,246c23.08,0,48.32,0,48.32-28.51,0-22.41-14.09-27.42-40.18-28.85-64.63-3.43-88-5.3-112.1-23.2-16.37-12.17-24.86-35.85-24.86-68,0-54.57,19-73.7,46.5-87.06,28.35-13.75,139.62-13.75,169.51,0,37.71,17.38,38.84,54.88,38.84,89.74h-81c-.15-17.73-4.17-22.78-7.44-26.12-8.4-7.41-20.38-9-37.63-9-20.93,0-45.08.93-45.08,26.33,0,19.32,8.27,27.5,30.34,28.86,30.22,2,89.72,3.82,110.94,16.34C890,154.21,897.66,178,897.66,216.93c0,56.15-20.08,72.57-48,84.91-32.27,14.32-140.11,14.32-175.13-1.12-39.21-17.05-40-51.17-40-92.65"/><path class="cls-2" d="M2125.66,457.47h56.66L2267.69,538l-85.45,80.88h-56.67L2211,538Z"/><path class="cls-3" d="M2241.82,457.47h56.67L2383.82,538l-85.42,80.88h-56.68L2327.16,538Z"/><path d="M2358,457.47h56.62L2500,538l-85.45,80.88h-56.7l85.5-80.88ZM7.63,458.26H43.85V588.37h63.87v30.49H7.63Zm191.58,88.9c0-8.57-3.82-23.63-20.24-23.63-15.49,0-21.69,14.06-22.66,23.63Zm-42.66,24.76c1.21,15.26,16,22.39,32.88,22.39a97.05,97.05,0,0,0,32.17-5l4.74,24.52c-11.92,5-26.43,7.37-42.16,7.37-39.55,0-62.19-22.84-62.19-59.54,0-29.59,18.55-62.21,58.84-62.21,37.65,0,51.95,29.32,51.95,58.15a91.81,91.81,0,0,1-1.19,14.54l-75-.24Zm159.88-8.09c-19.06,0-33.82,4.5-33.82,18.33,0,9.31,6.2,13.82,14.29,13.82a20,20,0,0,0,18.84-13.34,25.58,25.58,0,0,0,.7-6.17Zm35,26.9c0,11,.47,21.69,1.92,28.13H320.71l-2.12-11.67h-.73c-7.62,9.28-19.52,14.29-33.35,14.29-23.59,0-37.65-17.17-37.65-35.74,0-30.28,27.17-44.55,68.39-44.55v-1.45c0-6.2-3.32-15-21.2-15-11.91,0-24.53,4-32.16,8.56l-6.69-23.13c8.12-4.52,24.08-10.47,45.26-10.47,38.85,0,51,22.88,51,50.29v40.73ZM457,551.91a30.09,30.09,0,0,0-.5-6.68c-2.12-9.78-10-17.61-21.18-17.61-16.7,0-25,14.76-25,33.12,0,19.52,9.77,31.89,24.79,31.89a21.42,21.42,0,0,0,21.21-17.37,43.23,43.23,0,0,0,.71-8.1V551.91Zm36.19-102.23v134.4c0,13.32.51,26.92,1,34.77H462L460.6,602h-.71c-7.16,12.87-21.45,19.51-36.46,19.51-27.65,0-49.81-23.57-49.81-59.78-.22-39.08,24.31-61.95,52.2-61.95,14.53,0,25.49,5.25,30.71,13.1h.5V449.69h36.19Zm29.09,52.66h36.23V618.85H522.31Zm17.87-15.24c-12.16,0-20-8.58-20-19.32,0-11,8.08-19.28,20.49-19.28s20,8.32,20.25,19.28c0,10.72-7.85,19.32-20.5,19.32Zm47.41,52.43c0-14.56-.48-26.7-1-37.19h31.47l1.63,16.19h.72c4.77-7.64,16.45-18.82,36-18.82,23.81,0,41.71,16,41.71,50.29v68.85H661.92V554.3c0-15-5.25-25.28-18.34-25.28-10,0-16,6.93-18.58,13.59-.94,2.39-1.19,5.73-1.19,9.06v67.19H587.59V539.53Zm213.73,10.24a32,32,0,0,0-.71-6.67c-2.62-9.56-9.52-16-19.54-16-13.34,0-23.8,11.91-23.8,33.14,0,17.39,8.57,31,23.58,31a19.82,19.82,0,0,0,19.31-14.56,34.19,34.19,0,0,0,1.18-9.76l0-17.14ZM837.54,602c0,22.37-4.53,40.72-17.88,52.44-12.61,10.94-30,14.28-47.17,14.28-15.5,0-31.45-3.09-41.94-8.82l7.15-27.66A70.79,70.79,0,0,0,771.54,641c17.16,0,30.28-9.07,30.28-30.72v-7.39h-.51c-6.89,9.53-18.11,15-31.44,15-28.83,0-49.32-23.36-49.32-56.73,0-37.65,24.08-61.47,52.91-61.47,15.95,0,26,6.89,31.9,16.45h.47l1.23-13.82h31.43q-1,17.37-.94,34.78V602Zm80.15-143.69H953.9v160.6H917.69Zm66.47,81.27c0-14.56-.47-26.7-.94-37.19h31.44l1.67,16.19h.69c4.8-7.64,16.47-18.82,36-18.82,23.82,0,41.69,16,41.69,50.29v68.85H1058.5V554.3c0-15-5.25-25.28-18.34-25.28-10,0-16,6.93-18.58,13.59-1,2.39-1.18,5.73-1.18,9.06v67.19H984.16V539.53Zm139.63,0c0-14.56-.46-26.7-.94-37.19h31.46l1.66,16.19h.7c4.77-7.64,16.45-18.82,36-18.82,23.84,0,41.72,16,41.72,50.29v68.85h-36.22V554.3c0-15-5.24-25.28-18.33-25.28-10,0-16,6.93-18.6,13.59-1,2.39-1.19,5.73-1.19,9.06v67.19h-36.24V539.53Zm194,56c14.32,0,23.13-14.07,23.13-35,0-17.18-6.68-34.78-23.13-34.78-17.17,0-23.8,17.61-23.8,35,0,19.78,8.33,34.78,23.56,34.78Zm-.72,25.94c-34,0-60.27-22.36-60.27-60.06s24.78-61.69,62.41-61.69c35.5,0,59.35,24.54,59.35,59.81,0,42.41-30.26,61.92-61.23,61.92l-.26,0Zm110.82-119.12,15.73,54.05c2.87,9.78,4.76,19.1,6.68,28.4h.73q2.74-14.29,6.4-28.4l15-54.05h38.09l-43.34,116.51h-36.24l-42.39-116.51Zm161.3,61.49c-19.07,0-33.83,4.5-33.83,18.33,0,9.31,6.18,13.82,14.3,13.82a20,20,0,0,0,18.82-13.34,26.62,26.62,0,0,0,.71-6.17Zm35,26.9c0,11,.48,21.69,1.9,28.13h-32.63l-2.14-11.67h-.76c-7.59,9.28-19.51,14.29-33.33,14.29-23.6,0-37.63-17.17-37.63-35.74,0-30.28,27.13-44.55,68.38-44.55v-1.45c0-6.2-3.35-15-21.22-15-11.92,0-24.53,4-32.16,8.56l-6.69-23.13c8.13-4.52,24.11-10.47,45.28-10.47,38.83,0,51,22.88,51,50.29v40.73Zm69.34-120.1v31.72h26V529h-26v42.44c0,14.07,3.57,20.47,14.33,20.47a44.57,44.57,0,0,0,10.69-.94l.25,27.4c-4.53,1.69-13.33,3.09-23.37,3.09-11.68,0-21.43-4-27.42-10-6.65-6.91-10-18.13-10-34.55V529h-15.48V502.34H1658V480.4l35.51-9.77Zm47,31.71h36.18V618.85h-36.18Zm17.86-15.24c-12.17,0-20-8.58-20-19.32,0-11,8.11-19.28,20.51-19.28s20,8.32,20.26,19.28c0,10.72-7.85,19.32-20.52,19.32Zm101.73,108.42c14.29,0,23.1-14.07,23.1-35,0-17.18-6.65-34.78-23.1-34.78-17.16,0-23.83,17.61-23.83,35,0,19.78,8.33,34.78,23.59,34.78Zm-.74,25.94c-34,0-60.25-22.36-60.25-60.06s24.77-61.69,62.4-61.69c35.51,0,59.36,24.54,59.36,59.81,0,42.41-30.28,61.92-61.25,61.92l-.26,0Zm80.54-81.93c0-14.56-.5-26.7-.94-37.19h31.43l1.68,16.19h.7c4.75-7.64,16.44-18.82,36-18.82,23.8,0,41.71,16,41.71,50.29v68.85h-36.22V554.3c0-15-5.24-25.28-18.34-25.28-10,0-16,6.93-18.57,13.59-1,2.39-1.21,5.73-1.21,9.06v67.19h-36.21V539.53Z"/></g></g></svg>