<svg xmlns="http://www.w3.org/2000/svg" width="40" height="40" viewBox="0 0 40 40" fill="none"><g id="Software" clip-path="url(#clip0_2345_15529)"><path id="Vector" d="M20 40C31.0457 40 40 31.0457 40 20C40 8.9543 31.0457 0 20 0C8.9543 0 0 8.9543 0 20C0 31.0457 8.9543 40 20 40Z" fill="#E3E8F3"></path><path id="Vector_2" d="M16.3287 20.4056L17.6098 14.8181C17.6562 14.6166 17.8573 14.4905 18.0589 14.5364C18.2605 14.5828 18.3866 14.7834 18.3406 14.9855L17.0595 20.573C17.0197 20.7464 16.8655 20.8641 16.6948 20.8641C16.6672 20.8641 16.6391 20.8608 16.6109 20.8547C16.4084 20.8083 16.2828 20.6072 16.3287 20.4056ZM12.1452 18.022L15.2131 19.7363C15.2708 19.7686 15.3336 19.7841 15.3955 19.7841C15.5267 19.7841 15.6542 19.7147 15.7231 19.5919C15.8239 19.4114 15.7592 19.1831 15.5787 19.0819L13.0963 17.6948L15.5787 16.3078C15.7592 16.207 15.8239 15.9788 15.7231 15.7978C15.6223 15.6173 15.3941 15.5527 15.2131 15.6534L12.1452 17.3677C12.0266 17.4338 11.9534 17.5589 11.9534 17.6948C11.953 17.8308 12.0266 17.9559 12.1452 18.022ZM18.9472 19.5919C19.0156 19.7147 19.1431 19.7841 19.2748 19.7841C19.3367 19.7841 19.3995 19.7686 19.4572 19.7363L22.5252 18.022C22.6438 17.9559 22.7169 17.8308 22.7169 17.6948C22.7169 17.5589 22.6433 17.4338 22.5252 17.3677L19.4572 15.6534C19.2762 15.5527 19.0484 15.6173 18.9472 15.7978C18.8464 15.9783 18.9111 16.2066 19.0916 16.3078L21.5741 17.6948L19.0916 19.0819C18.9111 19.1827 18.8464 19.4109 18.9472 19.5919ZM32 22.5197V23.8341C32 23.9963 31.8955 24.1402 31.7413 24.1903L30.9237 24.4561C30.8183 24.8367 30.6669 25.2019 30.4719 25.545L30.8628 26.3119C30.9369 26.4567 30.9088 26.6325 30.7934 26.7473L29.8653 27.6755C29.7505 27.7908 29.5747 27.8184 29.4298 27.7448L28.6634 27.3539C28.3194 27.5498 27.9542 27.7013 27.5731 27.8063L27.5098 27.9994L27.3083 28.6223C27.2581 28.777 27.1142 28.8816 26.9516 28.8816H25.6377C25.475 28.8816 25.3311 28.777 25.2809 28.6223L25.0161 27.8063C24.635 27.7013 24.2694 27.5498 23.9258 27.3539L23.1594 27.7448C23.0145 27.8189 22.8387 27.7908 22.7239 27.6755L21.7958 26.7473C21.6945 26.6461 21.6608 26.498 21.7044 26.3648H19.3845L20.0173 28.132H21.2577C21.4648 28.132 21.6322 28.2998 21.6322 28.5066C21.6322 28.7133 21.4644 28.8811 21.2577 28.8811H19.7563C19.7553 28.8811 19.7544 28.8811 19.7534 28.8811C19.753 28.8811 19.7525 28.8811 19.752 28.8811H14.9178C14.9173 28.8811 14.9169 28.8811 14.9164 28.8811C14.9155 28.8811 14.9145 28.8811 14.9136 28.8811H13.4122C13.205 28.8811 13.0377 28.7133 13.0377 28.5066C13.0377 28.2998 13.2055 28.132 13.4122 28.132H14.6525L15.2853 26.3648H9.54969C8.69516 26.3648 8 25.6702 8 24.8156V13.5478C8 12.6942 8.69516 12 9.54922 12H25.1206C25.9752 12 26.6698 12.6942 26.6698 13.5478V17.4717H26.9516C27.1142 17.4717 27.2581 17.5763 27.3083 17.7309L27.5731 18.5475C27.9542 18.653 28.3194 18.8044 28.663 18.9994L29.4303 18.6094C29.5752 18.5358 29.7505 18.5639 29.8648 18.6783L30.7934 19.6055C30.9088 19.7203 30.9364 19.8961 30.8628 20.0409L30.4719 20.8073C30.6683 21.1528 30.8197 21.518 30.9242 21.8972L31.1173 21.9605L31.7403 22.162C31.895 22.2131 32 22.357 32 22.5197ZM8.74953 13.5478V22.6416H20.5902V22.5192C20.5902 22.3566 20.6947 22.2127 20.8494 22.1625L21.6659 21.8977C21.7714 21.5166 21.9228 21.1514 22.1183 20.8078L21.7273 20.0409C21.6533 19.8961 21.6814 19.7203 21.7967 19.6055L22.7253 18.6783C22.8402 18.5634 23.0155 18.5358 23.1598 18.6089L23.9272 18.9989C24.2708 18.8039 24.6359 18.6525 25.017 18.547L25.0803 18.3534L25.2819 17.7305C25.332 17.5758 25.4759 17.4713 25.6386 17.4713H25.9217V13.5473C25.9217 13.1072 25.5627 12.7486 25.122 12.7486H9.54969C9.10859 12.7495 8.74953 13.1077 8.74953 13.5478ZM9.54969 25.6158H22.0822L22.1183 25.545C21.9233 25.2014 21.7719 24.8367 21.6664 24.4561L20.8489 24.1903C20.6947 24.1402 20.5902 23.9963 20.5902 23.8341V23.3916H8.74953V24.8161C8.74953 25.2567 9.10859 25.6158 9.54969 25.6158ZM18.5895 26.3648H16.0812L15.4484 28.132H19.2223L18.5895 26.3648ZM31.2505 22.792L30.4948 22.5459C30.3697 22.5047 30.2755 22.4011 30.2459 22.2727C30.1456 21.8316 29.9713 21.4106 29.7266 21.0216C29.6562 20.91 29.6502 20.7698 29.7102 20.6522L30.0711 19.9434L29.5273 19.4006L28.8186 19.7611C28.7009 19.8211 28.5608 19.8145 28.4492 19.7447C28.063 19.5019 27.642 19.3275 27.1972 19.2253C27.0692 19.1958 26.9661 19.1016 26.9248 18.9769L26.6788 18.2213H25.91L25.6639 18.9769C25.6231 19.1016 25.5195 19.1958 25.3916 19.2253C24.9472 19.3275 24.5258 19.5023 24.1395 19.7447C24.028 19.815 23.8878 19.8211 23.7702 19.7611L23.0614 19.4006L22.5177 19.9434L22.8786 20.6522C22.9386 20.7698 22.932 20.91 22.8622 21.0216C22.6198 21.4078 22.445 21.8288 22.3428 22.2736C22.3133 22.4016 22.2191 22.5047 22.0944 22.5459L21.3387 22.792V23.5617L22.0934 23.8069C22.2186 23.8477 22.3137 23.9508 22.3433 24.0792C22.4455 24.5236 22.6203 24.945 22.8627 25.3313C22.933 25.4428 22.9391 25.583 22.8791 25.7006L22.647 26.1558C22.6442 26.1614 22.6414 26.1675 22.6381 26.1731L22.5177 26.4098L23.0614 26.9536L23.7702 26.5927C23.8878 26.5327 24.0284 26.5392 24.14 26.6095C24.5258 26.8528 24.9462 27.0277 25.3902 27.1284C25.5186 27.1575 25.6222 27.2522 25.6634 27.3773L25.9095 28.133H26.6783L26.9244 27.3773C26.9652 27.2522 27.0692 27.158 27.1977 27.1284C27.6416 27.0277 28.062 26.8533 28.4478 26.6095C28.5594 26.5392 28.7 26.5327 28.8177 26.5927L29.5264 26.9536L30.0702 26.4098L29.7092 25.7011C29.6492 25.5834 29.6558 25.4433 29.7256 25.3317C29.968 24.9455 30.1428 24.5245 30.245 24.0797C30.2745 23.9513 30.3692 23.8477 30.4948 23.8073L31.2495 23.5622V22.792H31.2505ZM28.6114 23.1773C28.6114 24.4542 27.5727 25.4934 26.2953 25.4934C25.0175 25.4934 23.9778 24.4547 23.9778 23.1773C23.9778 21.8995 25.0175 20.8598 26.2953 20.8598C27.5727 20.8598 28.6114 21.8995 28.6114 23.1773ZM27.8623 23.1773C27.8623 22.313 27.1597 21.6094 26.2958 21.6094C25.4314 21.6094 24.7278 22.313 24.7278 23.1773C24.7278 24.0413 25.4314 24.7439 26.2958 24.7439C27.1592 24.7439 27.8623 24.0413 27.8623 23.1773Z" fill="#365AA1"></path></g><defs><clipPath id="clip0_2345_15529"><rect width="40" height="40" fill="white"></rect></clipPath></defs></svg>